<svg width="347" height="182" viewBox="0 0 347 182" fill="none" xmlns="http://www.w3.org/2000/svg">
<path d="M271.668 59.7886C271.981 60.5554 272.857 60.9227 273.624 60.609C274.391 60.2953 274.758 59.4195 274.444 58.6527L271.668 59.7886ZM139.209 38.6527L140.628 39.1402L139.209 38.6527ZM18.2045 181.073C18.9003 181.523 19.8288 181.323 20.2785 180.627L27.6056 169.289C28.0552 168.593 27.8556 167.664 27.1598 167.215C26.464 166.765 25.5355 166.965 25.0859 167.661L18.5729 177.739L8.49415 171.226C7.79836 170.777 6.86981 170.976 6.42018 171.672C5.97055 172.368 6.17011 173.296 6.8659 173.746L18.2045 181.073ZM274.444 58.6527C269.793 47.2835 260.039 37.0428 247.894 28.8958C235.732 20.7378 221.058 14.6 206.386 11.4948C191.726 8.39239 176.957 8.29441 164.652 12.3455C152.295 16.4137 142.426 24.6756 137.791 38.1652L140.628 39.1402C144.915 26.6641 153.99 19.0141 165.59 15.1951C177.241 11.3591 191.443 11.3988 205.765 14.4298C220.073 17.4581 234.389 23.4494 246.223 31.3872C258.073 39.336 267.319 49.1578 271.668 59.7886L274.444 58.6527ZM137.791 38.1652C132.521 53.4977 137.23 65.4567 145.078 71.6483C152.824 77.7601 163.823 78.2325 170.231 70.1532L167.881 68.2891C162.788 74.7098 153.78 74.693 146.936 69.2931C140.193 63.973 135.728 53.3978 140.628 39.1402L137.791 38.1652ZM170.231 70.1532C173.458 66.0849 174.234 60.7651 172.394 55.3936C170.562 50.0478 166.167 44.6894 159.107 40.2587C144.99 31.3991 119.986 26.0766 81.959 31.8581L82.41 34.8241C120.055 29.1006 144.236 34.4682 157.512 42.7998C164.149 46.9647 168.001 51.8273 169.556 56.366C171.102 60.8791 170.404 65.1074 167.881 68.2891L170.231 70.1532ZM81.959 31.8581C62.8046 34.7704 48.2706 41.5374 37.4948 51.1226C26.7213 60.7057 19.7939 73.0259 15.7207 86.902C7.5918 114.594 10.7845 148.638 17.5521 180.128L20.4851 179.498C13.7464 148.142 10.6865 114.703 18.5993 87.7469C22.5469 74.2987 29.214 62.5035 39.4887 53.3641C49.761 44.2268 63.7288 37.6643 82.41 34.8241L81.959 31.8581Z" fill="#4BAB00"/>
<path d="M236.799 97.6803C237.389 97.4727 238.051 97.0947 238.785 96.5462L239.669 99.0553C238.961 99.7269 237.995 100.278 236.772 100.709C235.424 101.184 234.32 101.191 233.463 100.731C232.61 100.261 231.943 99.3446 231.463 97.9813L229.365 92.0235L227.752 92.5918L227.249 91.1659L228.709 89.3845L228.764 86.4334L230.919 85.6744L231.845 88.3051L235.305 87.0869L236.196 89.6181L232.737 90.8364L234.835 96.7942C235.003 97.2732 235.26 97.5802 235.606 97.7152C235.959 97.8477 236.357 97.836 236.799 97.6803ZM253.706 94.4976L250.334 95.6847L247.793 88.4668C247.165 86.6835 246.188 86.0254 244.861 86.4925C243.918 86.8246 243.349 87.3852 243.155 88.1742C242.961 88.9632 243.116 90.0762 243.622 91.5131L245.67 97.3273L242.298 98.5144L236.242 81.3152L239.613 80.1281L240.847 83.632C240.943 83.9047 241.143 84.5548 241.447 85.5826L241.72 86.6046L241.897 86.5423C242.223 85.0692 243.204 84.0445 244.84 83.4685C246.292 82.9573 247.531 82.9599 248.557 83.4764C249.584 83.9928 250.354 84.9806 250.868 86.4396L253.706 94.4976ZM265.024 90.512L263.781 89.0615L263.692 89.0926C263.376 90.0072 262.966 90.7109 262.46 91.2037C261.959 91.6865 261.226 92.0979 260.261 92.4378C259.074 92.8556 258.019 92.8462 257.095 92.4095C256.178 91.9703 255.5 91.1243 255.058 89.8716C254.597 88.5599 254.713 87.4337 255.409 86.493C256.11 85.5422 257.373 84.7081 259.2 83.9904L261.321 83.169L261.13 82.6274C260.689 81.3747 259.827 80.9741 258.545 81.4256C257.557 81.7733 256.502 82.4804 255.378 83.547L253.46 81.6631C254.62 80.418 256.066 79.4906 257.798 78.8808C259.456 78.2969 260.854 78.2104 261.993 78.6212C263.131 79.032 263.96 79.9743 264.479 81.4481L267.379 89.6829L265.024 90.512ZM262.013 85.1365L260.725 85.64C259.755 86.0146 259.088 86.4484 258.723 86.9413C258.358 87.4342 258.292 88.0122 258.526 88.6754C258.861 89.626 259.573 89.9093 260.664 89.5253C261.445 89.2502 261.989 88.8062 262.295 88.1932C262.608 87.5777 262.634 86.8977 262.371 86.1535L262.013 85.1365ZM275.199 84.1587C275.788 83.9511 276.45 83.573 277.185 83.0245L278.068 85.5336C277.361 86.2053 276.395 86.7564 275.172 87.1872C273.823 87.662 272.72 87.6695 271.863 87.2095C271.01 86.7395 270.343 85.8229 269.863 84.4597L267.765 78.5019L266.151 79.0701L265.649 77.6442L267.109 75.8629L267.163 72.9117L269.319 72.1527L270.245 74.7835L273.705 73.5652L274.596 76.0964L271.136 77.3147L273.234 83.2725C273.403 83.7515 273.66 84.0585 274.006 84.1936C274.359 84.326 274.757 84.3144 275.199 84.1587ZM277.727 67.8751L277.967 68.0637C278.11 69.6452 278.083 71.6384 277.886 74.0434L275.466 74.8958C275.206 72.5355 274.924 70.5599 274.621 68.9688L277.727 67.8751ZM292.935 76.5589C293.382 77.8263 293.28 78.9474 292.629 79.922C291.985 80.894 290.787 81.6887 289.033 82.3063C288.134 82.6229 287.346 82.8301 286.668 82.928C285.992 83.0332 285.337 83.0653 284.701 83.0241L283.72 80.2386C284.451 80.3128 285.241 80.3118 286.092 80.2358C286.951 80.1571 287.679 80.0126 288.276 79.8025C289.499 79.3717 289.986 78.8026 289.737 78.0952C289.643 77.8299 289.487 77.6448 289.268 77.5397C289.046 77.4273 288.7 77.338 288.229 77.2718C287.756 77.1982 287.139 77.1382 286.377 77.0917C285.286 77.0285 284.456 76.9066 283.887 76.7259C283.326 76.5426 282.865 76.2699 282.506 75.9078C282.151 75.5357 281.861 75.0291 281.635 74.388C281.249 73.29 281.374 72.2934 282.011 71.3981C282.653 70.4929 283.756 69.7652 285.318 69.2151C286.806 68.6909 288.368 68.5053 290.004 68.6581L289.844 71.448C289.131 71.4007 288.476 71.387 287.879 71.4069C287.281 71.4268 286.702 71.5354 286.142 71.7326C285.147 72.0829 284.745 72.527 284.934 73.065C285.04 73.3671 285.291 73.5729 285.686 73.6824C286.088 73.7893 286.907 73.8694 288.143 73.9228C289.246 73.9734 290.082 74.089 290.651 74.2697C291.22 74.4504 291.689 74.7242 292.058 75.0911C292.428 75.458 292.72 75.9473 292.935 76.5589ZM313.803 73.3355L310.432 74.5226L307.89 67.3047C307.576 66.413 307.191 65.7993 306.733 65.4636C306.28 65.1179 305.733 65.0579 305.092 65.2836C304.229 65.5872 303.715 66.1247 303.547 66.8959C303.38 67.6672 303.552 68.7786 304.063 70.2303L306.11 76.0445L302.739 77.2316L298.387 64.8738L300.963 63.9669L301.973 65.388L302.16 65.3218C302.292 64.6376 302.616 64.0268 303.13 63.4894C303.643 62.9446 304.304 62.5295 305.115 62.2441C306.964 61.5928 308.43 61.7559 309.511 62.7335L309.809 62.6284C309.939 61.9368 310.268 61.3197 310.798 60.7771C311.334 60.2319 312.008 59.8166 312.819 59.5312C314.219 59.0381 315.404 59.0269 316.373 59.4973C317.346 59.9578 318.112 60.9802 318.67 62.5646L321.508 70.6226L318.125 71.8136L315.584 64.5957C315.27 63.704 314.884 63.0903 314.426 62.7546C313.973 62.4089 313.426 62.3489 312.785 62.5746C311.959 62.8652 311.444 63.378 311.239 64.1128C311.041 64.845 311.168 65.8523 311.62 67.1345L313.803 73.3355ZM326.508 57.407C325.793 57.6587 325.313 58.0843 325.069 58.6839C324.822 59.2761 324.815 59.999 325.05 60.8524L329.781 59.1866C329.473 58.359 329.029 57.7945 328.451 57.4929C327.87 57.1839 327.222 57.1553 326.508 57.407ZM330.649 67.652C328.66 68.3526 326.912 68.3511 325.405 67.6476C323.898 66.944 322.791 65.5863 322.082 63.5746C321.353 61.5039 321.306 59.7232 321.94 58.2325C322.58 56.7318 323.813 55.6597 325.641 55.0162C327.387 54.4012 328.922 54.4198 330.245 55.0721C331.568 55.7244 332.538 56.9275 333.156 58.6813L333.732 60.3172L325.762 63.1235C326.137 64.0685 326.684 64.7166 327.404 65.0677C328.124 65.4188 328.963 65.4257 329.921 65.0884C330.665 64.8263 331.341 64.5011 331.95 64.1128C332.559 63.7245 333.165 63.2338 333.767 62.6405L334.686 65.2491C334.2 65.7515 333.647 66.1907 333.025 66.5668C332.407 66.9504 331.615 67.3121 330.649 67.652ZM339.295 58.3334L336.598 59.2831L332.232 48.6824L336.056 47.3357L339.295 58.3334ZM337.321 63.2775C337.103 62.6585 337.104 62.1322 337.324 61.6986C337.544 61.2649 337.971 60.9365 338.605 60.7134C339.217 60.498 339.745 60.4941 340.191 60.7015C340.644 60.9064 340.977 61.311 341.19 61.9152C341.395 62.4974 341.388 63.0176 341.168 63.4759C340.946 63.9269 340.533 64.2588 339.928 64.4716C339.309 64.6895 338.773 64.6961 338.32 64.4912C337.864 64.279 337.531 63.8744 337.321 63.2775Z" fill="#4BAB00"/>
</svg>
