<svg width="616" height="491" viewBox="0 0 616 491" fill="none" xmlns="http://www.w3.org/2000/svg">
<g opacity="0.1">
<mask id="path-1-outside-1_661:125" maskUnits="userSpaceOnUse" x="0" y="0.294434" width="616" height="490" fill="black">
<rect fill="white" y="0.294434" width="616" height="490"/>
<path fill-rule="evenodd" clip-rule="evenodd" d="M249.851 67.3709C245.847 71.5468 247.231 82.2763 253.818 98.0943C257.568 107.095 257.324 107.016 262.013 100.704C273.598 85.103 286.706 88.7658 298.461 110.896C300.913 115.511 302.919 119.923 302.919 120.703C302.919 121.482 303.307 122.54 303.779 123.056C304.251 123.571 305.725 127.323 307.052 131.393C308.381 135.463 309.844 139.903 310.306 141.259C310.767 142.616 312.147 147.722 313.371 152.605C314.596 157.489 316.001 163.039 316.497 164.938C316.992 166.838 317.971 171.499 318.671 175.298C319.371 179.096 320.362 183.492 320.871 185.065C321.382 186.639 321.799 189.165 321.799 190.679C321.799 192.194 322.271 193.708 322.848 194.044C323.532 194.441 323.905 188.21 323.92 176.097C324.03 85.8432 344.846 64.7341 378.465 120.787C384.365 130.623 384.344 130.638 385.238 116.078C388.587 61.4462 368.663 52.4827 328.667 90.633L316.654 102.093L309 96.2987C304.789 93.1119 300.402 89.6809 299.248 88.6721C279.715 71.5961 255.725 61.2513 249.851 67.3709ZM22.9429 1.84447C20.9238 2.37478 17.8218 3.22822 16.0518 3.74127C14.2791 4.25184 11.8012 4.67114 10.5451 4.67114C6.84516 4.67114 7.9124 6.4816 12.9103 8.69164C28.5833 15.6202 32.5114 35.2589 23.7453 62.8819C20.992 71.5642 20.2866 73.3771 16.7545 80.8779C12.3308 90.2706 14.1244 89.7847 23.4097 79.07C34.5725 66.1945 38.435 60.3981 40.4541 53.509C49.4273 22.8768 40.7163 -2.82226 22.9429 1.84447ZM482.279 136.758C454.567 143.758 424.052 162.871 416.859 177.74C414.628 182.35 412.438 224.5 413.833 235.975C414.728 243.335 421.501 248.426 436.854 253.273C454.653 258.894 461.649 259.372 492.505 257.083C502.818 256.316 502.816 256.306 495.699 265.178C481.038 283.461 436.704 319.847 414.552 331.78C412.286 333.001 407.598 336.718 404.137 340.038C373.769 369.166 341.639 370.848 328.2 344.01C322.919 333.468 322.069 329.921 320.734 312.901C319.591 298.339 318.807 296.158 314.714 296.158C309.566 296.158 295.718 317.07 288.253 336.117C286.976 339.372 285.523 342.924 285.022 344.01C284.519 345.095 281.052 354.641 277.318 365.222C265.159 399.655 262.826 404.714 253.48 416.854C238.211 436.698 197.9 464.948 174.431 472.251C166.195 474.814 141.9 477.651 127.942 477.678C113.31 477.705 108.254 482.024 120.07 484.404C143.51 489.123 183.399 491.069 203.8 488.489C248.852 482.794 271.982 456.339 293.458 385.941C294.203 383.499 295.21 380.169 295.695 378.541C301.427 359.354 307.34 347.463 311.153 347.463C312.558 347.463 313.258 349.029 314.352 354.616C324.426 406.09 354.878 419.992 396.522 392.127C407.889 384.52 411.822 381.447 425.104 369.785C432.595 363.204 441.563 355.385 445.033 352.403C470.791 330.268 509.225 293.465 525.423 275.424C528.095 272.447 531.475 268.681 532.938 267.053C536.344 263.257 537.079 264.078 538.052 272.766C538.489 276.677 539.35 283.875 539.966 288.759C540.582 293.642 541.555 301.634 542.126 306.518C545.139 332.281 546.959 347.236 548.367 357.822C548.947 362.163 549.681 368.379 550.001 371.635C550.861 380.374 551.367 381.995 553.234 381.995C554.626 381.995 554.8 381.277 554.22 377.868C553.835 375.599 553.056 365.942 552.489 356.409C551.042 331.988 548.863 305.196 546.264 279.879C545.653 273.91 544.896 265.253 544.581 260.64L544.009 252.254L551.999 242.881C563.44 229.461 566.08 226.397 571.889 219.799C580.589 209.916 597.647 193.725 604.352 188.985C613.952 182.197 615.488 178.275 615.488 160.57C615.488 144.542 613.527 141.666 606.148 146.886C600.715 150.726 572.806 176.906 567.239 183.383C557.881 194.273 554.459 196.969 547.266 199.122C539.082 201.572 537.871 201.268 537.871 196.764C537.871 194.85 537.372 190.346 536.767 186.757C536.158 183.169 535.183 177.123 534.595 173.325C532.435 159.342 528.682 150.519 521.985 143.686C517.954 139.572 516.307 138.59 508.189 135.478C503.605 133.719 492.051 134.291 482.279 136.758ZM119.873 72.5015C118.271 79.1094 112.659 93.2453 108.692 100.67C104.08 109.295 103.951 109.47 83.0939 135.892C75.597 145.388 68.3413 154.712 66.9699 156.611C65.5985 158.51 64.1747 160.286 63.8075 160.558C58.5369 164.46 29.3123 211.384 22.5994 226.721C21.5453 229.13 20.2919 231.989 19.812 233.074C12.8972 248.762 7.88094 266.242 3.95549 288.325C-0.439344 313.045 0.121806 349.306 5.27446 373.668C14.2634 416.157 47.9012 433.724 87.9686 416.855C112.29 406.614 136.467 373.108 145.471 337.163C146.082 334.721 146.861 331.613 147.204 330.257C150.705 316.348 152.218 284.438 149.79 275.613C143.88 254.112 135.748 241.352 125.257 237.11C117.414 233.938 115.872 233.568 110.528 233.568C92.6965 233.568 76.4728 242.904 64.2297 260.207C59.0771 267.488 52.3117 279.784 52.3117 281.863C52.3117 282.448 51.887 283.696 51.3651 284.638C50.4343 286.325 49.4535 289.672 47.1748 298.946C46.5376 301.531 46.0184 308.729 46.0184 314.942C46.0184 336.177 51.3782 343.118 70.6672 346.852C91.7892 350.941 89.951 351.381 93.9053 341.302C103.828 316.01 98.5204 305.167 75.125 302.932C71.8079 302.617 69.0939 302.175 69.0939 301.953C69.0939 290.079 95.185 276.94 108.64 282.038C134.56 291.855 139.75 304.844 127.509 329.27C98.7643 386.64 36.1641 397.061 17.8768 347.523C15.1261 340.076 14.3316 330.279 14.9111 311.018C15.5693 289.033 16.3192 282.99 20.7193 264.153C24.6474 247.344 36.0855 221.82 47.4659 204.462C50.311 200.121 53.261 195.459 54.0162 194.103C55.8072 190.896 73.2082 167.244 83.7783 153.651C111.86 117.543 128.191 85.0514 124.315 72.9948C123.056 69.0779 120.762 68.8239 119.873 72.5015ZM497.488 183.035C509.434 185.184 516.489 189.994 521.033 199.088C523.823 204.67 523.697 204.798 513.221 207.215C471.856 216.758 423.111 209.79 438.238 196.498C450.775 185.482 477.433 179.427 497.488 183.035ZM211.989 168.088C210.817 170.424 209.404 176.608 207.319 188.526C205.447 199.219 205.499 252.94 207.39 262.03C212.7 287.554 219.3 298.103 232.366 301.953C252.507 307.887 268.88 286.523 262.013 263.263C260.652 258.658 260.565 258.663 255.916 263.675C251.453 268.49 243.72 273.376 240.566 273.376C230.641 273.376 222.829 248.163 217.947 200.366C217.309 194.126 216.358 186.05 215.828 182.417C215.301 178.786 214.868 173.818 214.868 171.376C214.868 166.32 213.602 164.872 211.989 168.088Z"/>
</mask>
<path fill-rule="evenodd" clip-rule="evenodd" d="M249.851 67.3709C245.847 71.5468 247.231 82.2763 253.818 98.0943C257.568 107.095 257.324 107.016 262.013 100.704C273.598 85.103 286.706 88.7658 298.461 110.896C300.913 115.511 302.919 119.923 302.919 120.703C302.919 121.482 303.307 122.54 303.779 123.056C304.251 123.571 305.725 127.323 307.052 131.393C308.381 135.463 309.844 139.903 310.306 141.259C310.767 142.616 312.147 147.722 313.371 152.605C314.596 157.489 316.001 163.039 316.497 164.938C316.992 166.838 317.971 171.499 318.671 175.298C319.371 179.096 320.362 183.492 320.871 185.065C321.382 186.639 321.799 189.165 321.799 190.679C321.799 192.194 322.271 193.708 322.848 194.044C323.532 194.441 323.905 188.21 323.92 176.097C324.03 85.8432 344.846 64.7341 378.465 120.787C384.365 130.623 384.344 130.638 385.238 116.078C388.587 61.4462 368.663 52.4827 328.667 90.633L316.654 102.093L309 96.2987C304.789 93.1119 300.402 89.6809 299.248 88.6721C279.715 71.5961 255.725 61.2513 249.851 67.3709ZM22.9429 1.84447C20.9238 2.37478 17.8218 3.22822 16.0518 3.74127C14.2791 4.25184 11.8012 4.67114 10.5451 4.67114C6.84516 4.67114 7.9124 6.4816 12.9103 8.69164C28.5833 15.6202 32.5114 35.2589 23.7453 62.8819C20.992 71.5642 20.2866 73.3771 16.7545 80.8779C12.3308 90.2706 14.1244 89.7847 23.4097 79.07C34.5725 66.1945 38.435 60.3981 40.4541 53.509C49.4273 22.8768 40.7163 -2.82226 22.9429 1.84447ZM482.279 136.758C454.567 143.758 424.052 162.871 416.859 177.74C414.628 182.35 412.438 224.5 413.833 235.975C414.728 243.335 421.501 248.426 436.854 253.273C454.653 258.894 461.649 259.372 492.505 257.083C502.818 256.316 502.816 256.306 495.699 265.178C481.038 283.461 436.704 319.847 414.552 331.78C412.286 333.001 407.598 336.718 404.137 340.038C373.769 369.166 341.639 370.848 328.2 344.01C322.919 333.468 322.069 329.921 320.734 312.901C319.591 298.339 318.807 296.158 314.714 296.158C309.566 296.158 295.718 317.07 288.253 336.117C286.976 339.372 285.523 342.924 285.022 344.01C284.519 345.095 281.052 354.641 277.318 365.222C265.159 399.655 262.826 404.714 253.48 416.854C238.211 436.698 197.9 464.948 174.431 472.251C166.195 474.814 141.9 477.651 127.942 477.678C113.31 477.705 108.254 482.024 120.07 484.404C143.51 489.123 183.399 491.069 203.8 488.489C248.852 482.794 271.982 456.339 293.458 385.941C294.203 383.499 295.21 380.169 295.695 378.541C301.427 359.354 307.34 347.463 311.153 347.463C312.558 347.463 313.258 349.029 314.352 354.616C324.426 406.09 354.878 419.992 396.522 392.127C407.889 384.52 411.822 381.447 425.104 369.785C432.595 363.204 441.563 355.385 445.033 352.403C470.791 330.268 509.225 293.465 525.423 275.424C528.095 272.447 531.475 268.681 532.938 267.053C536.344 263.257 537.079 264.078 538.052 272.766C538.489 276.677 539.35 283.875 539.966 288.759C540.582 293.642 541.555 301.634 542.126 306.518C545.139 332.281 546.959 347.236 548.367 357.822C548.947 362.163 549.681 368.379 550.001 371.635C550.861 380.374 551.367 381.995 553.234 381.995C554.626 381.995 554.8 381.277 554.22 377.868C553.835 375.599 553.056 365.942 552.489 356.409C551.042 331.988 548.863 305.196 546.264 279.879C545.653 273.91 544.896 265.253 544.581 260.64L544.009 252.254L551.999 242.881C563.44 229.461 566.08 226.397 571.889 219.799C580.589 209.916 597.647 193.725 604.352 188.985C613.952 182.197 615.488 178.275 615.488 160.57C615.488 144.542 613.527 141.666 606.148 146.886C600.715 150.726 572.806 176.906 567.239 183.383C557.881 194.273 554.459 196.969 547.266 199.122C539.082 201.572 537.871 201.268 537.871 196.764C537.871 194.85 537.372 190.346 536.767 186.757C536.158 183.169 535.183 177.123 534.595 173.325C532.435 159.342 528.682 150.519 521.985 143.686C517.954 139.572 516.307 138.59 508.189 135.478C503.605 133.719 492.051 134.291 482.279 136.758ZM119.873 72.5015C118.271 79.1094 112.659 93.2453 108.692 100.67C104.08 109.295 103.951 109.47 83.0939 135.892C75.597 145.388 68.3413 154.712 66.9699 156.611C65.5985 158.51 64.1747 160.286 63.8075 160.558C58.5369 164.46 29.3123 211.384 22.5994 226.721C21.5453 229.13 20.2919 231.989 19.812 233.074C12.8972 248.762 7.88094 266.242 3.95549 288.325C-0.439344 313.045 0.121806 349.306 5.27446 373.668C14.2634 416.157 47.9012 433.724 87.9686 416.855C112.29 406.614 136.467 373.108 145.471 337.163C146.082 334.721 146.861 331.613 147.204 330.257C150.705 316.348 152.218 284.438 149.79 275.613C143.88 254.112 135.748 241.352 125.257 237.11C117.414 233.938 115.872 233.568 110.528 233.568C92.6965 233.568 76.4728 242.904 64.2297 260.207C59.0771 267.488 52.3117 279.784 52.3117 281.863C52.3117 282.448 51.887 283.696 51.3651 284.638C50.4343 286.325 49.4535 289.672 47.1748 298.946C46.5376 301.531 46.0184 308.729 46.0184 314.942C46.0184 336.177 51.3782 343.118 70.6672 346.852C91.7892 350.941 89.951 351.381 93.9053 341.302C103.828 316.01 98.5204 305.167 75.125 302.932C71.8079 302.617 69.0939 302.175 69.0939 301.953C69.0939 290.079 95.185 276.94 108.64 282.038C134.56 291.855 139.75 304.844 127.509 329.27C98.7643 386.64 36.1641 397.061 17.8768 347.523C15.1261 340.076 14.3316 330.279 14.9111 311.018C15.5693 289.033 16.3192 282.99 20.7193 264.153C24.6474 247.344 36.0855 221.82 47.4659 204.462C50.311 200.121 53.261 195.459 54.0162 194.103C55.8072 190.896 73.2082 167.244 83.7783 153.651C111.86 117.543 128.191 85.0514 124.315 72.9948C123.056 69.0779 120.762 68.8239 119.873 72.5015ZM497.488 183.035C509.434 185.184 516.489 189.994 521.033 199.088C523.823 204.67 523.697 204.798 513.221 207.215C471.856 216.758 423.111 209.79 438.238 196.498C450.775 185.482 477.433 179.427 497.488 183.035ZM211.989 168.088C210.817 170.424 209.404 176.608 207.319 188.526C205.447 199.219 205.499 252.94 207.39 262.03C212.7 287.554 219.3 298.103 232.366 301.953C252.507 307.887 268.88 286.523 262.013 263.263C260.652 258.658 260.565 258.663 255.916 263.675C251.453 268.49 243.72 273.376 240.566 273.376C230.641 273.376 222.829 248.163 217.947 200.366C217.309 194.126 216.358 186.05 215.828 182.417C215.301 178.786 214.868 173.818 214.868 171.376C214.868 166.32 213.602 164.872 211.989 168.088Z" fill="#4BAB00"/>
<path fill-rule="evenodd" clip-rule="evenodd" d="M249.851 67.3709C245.847 71.5468 247.231 82.2763 253.818 98.0943C257.568 107.095 257.324 107.016 262.013 100.704C273.598 85.103 286.706 88.7658 298.461 110.896C300.913 115.511 302.919 119.923 302.919 120.703C302.919 121.482 303.307 122.54 303.779 123.056C304.251 123.571 305.725 127.323 307.052 131.393C308.381 135.463 309.844 139.903 310.306 141.259C310.767 142.616 312.147 147.722 313.371 152.605C314.596 157.489 316.001 163.039 316.497 164.938C316.992 166.838 317.971 171.499 318.671 175.298C319.371 179.096 320.362 183.492 320.871 185.065C321.382 186.639 321.799 189.165 321.799 190.679C321.799 192.194 322.271 193.708 322.848 194.044C323.532 194.441 323.905 188.21 323.92 176.097C324.03 85.8432 344.846 64.7341 378.465 120.787C384.365 130.623 384.344 130.638 385.238 116.078C388.587 61.4462 368.663 52.4827 328.667 90.633L316.654 102.093L309 96.2987C304.789 93.1119 300.402 89.6809 299.248 88.6721C279.715 71.5961 255.725 61.2513 249.851 67.3709ZM22.9429 1.84447C20.9238 2.37478 17.8218 3.22822 16.0518 3.74127C14.2791 4.25184 11.8012 4.67114 10.5451 4.67114C6.84516 4.67114 7.9124 6.4816 12.9103 8.69164C28.5833 15.6202 32.5114 35.2589 23.7453 62.8819C20.992 71.5642 20.2866 73.3771 16.7545 80.8779C12.3308 90.2706 14.1244 89.7847 23.4097 79.07C34.5725 66.1945 38.435 60.3981 40.4541 53.509C49.4273 22.8768 40.7163 -2.82226 22.9429 1.84447ZM482.279 136.758C454.567 143.758 424.052 162.871 416.859 177.74C414.628 182.35 412.438 224.5 413.833 235.975C414.728 243.335 421.501 248.426 436.854 253.273C454.653 258.894 461.649 259.372 492.505 257.083C502.818 256.316 502.816 256.306 495.699 265.178C481.038 283.461 436.704 319.847 414.552 331.78C412.286 333.001 407.598 336.718 404.137 340.038C373.769 369.166 341.639 370.848 328.2 344.01C322.919 333.468 322.069 329.921 320.734 312.901C319.591 298.339 318.807 296.158 314.714 296.158C309.566 296.158 295.718 317.07 288.253 336.117C286.976 339.372 285.523 342.924 285.022 344.01C284.519 345.095 281.052 354.641 277.318 365.222C265.159 399.655 262.826 404.714 253.48 416.854C238.211 436.698 197.9 464.948 174.431 472.251C166.195 474.814 141.9 477.651 127.942 477.678C113.31 477.705 108.254 482.024 120.07 484.404C143.51 489.123 183.399 491.069 203.8 488.489C248.852 482.794 271.982 456.339 293.458 385.941C294.203 383.499 295.21 380.169 295.695 378.541C301.427 359.354 307.34 347.463 311.153 347.463C312.558 347.463 313.258 349.029 314.352 354.616C324.426 406.09 354.878 419.992 396.522 392.127C407.889 384.52 411.822 381.447 425.104 369.785C432.595 363.204 441.563 355.385 445.033 352.403C470.791 330.268 509.225 293.465 525.423 275.424C528.095 272.447 531.475 268.681 532.938 267.053C536.344 263.257 537.079 264.078 538.052 272.766C538.489 276.677 539.35 283.875 539.966 288.759C540.582 293.642 541.555 301.634 542.126 306.518C545.139 332.281 546.959 347.236 548.367 357.822C548.947 362.163 549.681 368.379 550.001 371.635C550.861 380.374 551.367 381.995 553.234 381.995C554.626 381.995 554.8 381.277 554.22 377.868C553.835 375.599 553.056 365.942 552.489 356.409C551.042 331.988 548.863 305.196 546.264 279.879C545.653 273.91 544.896 265.253 544.581 260.64L544.009 252.254L551.999 242.881C563.44 229.461 566.08 226.397 571.889 219.799C580.589 209.916 597.647 193.725 604.352 188.985C613.952 182.197 615.488 178.275 615.488 160.57C615.488 144.542 613.527 141.666 606.148 146.886C600.715 150.726 572.806 176.906 567.239 183.383C557.881 194.273 554.459 196.969 547.266 199.122C539.082 201.572 537.871 201.268 537.871 196.764C537.871 194.85 537.372 190.346 536.767 186.757C536.158 183.169 535.183 177.123 534.595 173.325C532.435 159.342 528.682 150.519 521.985 143.686C517.954 139.572 516.307 138.59 508.189 135.478C503.605 133.719 492.051 134.291 482.279 136.758ZM119.873 72.5015C118.271 79.1094 112.659 93.2453 108.692 100.67C104.08 109.295 103.951 109.47 83.0939 135.892C75.597 145.388 68.3413 154.712 66.9699 156.611C65.5985 158.51 64.1747 160.286 63.8075 160.558C58.5369 164.46 29.3123 211.384 22.5994 226.721C21.5453 229.13 20.2919 231.989 19.812 233.074C12.8972 248.762 7.88094 266.242 3.95549 288.325C-0.439344 313.045 0.121806 349.306 5.27446 373.668C14.2634 416.157 47.9012 433.724 87.9686 416.855C112.29 406.614 136.467 373.108 145.471 337.163C146.082 334.721 146.861 331.613 147.204 330.257C150.705 316.348 152.218 284.438 149.79 275.613C143.88 254.112 135.748 241.352 125.257 237.11C117.414 233.938 115.872 233.568 110.528 233.568C92.6965 233.568 76.4728 242.904 64.2297 260.207C59.0771 267.488 52.3117 279.784 52.3117 281.863C52.3117 282.448 51.887 283.696 51.3651 284.638C50.4343 286.325 49.4535 289.672 47.1748 298.946C46.5376 301.531 46.0184 308.729 46.0184 314.942C46.0184 336.177 51.3782 343.118 70.6672 346.852C91.7892 350.941 89.951 351.381 93.9053 341.302C103.828 316.01 98.5204 305.167 75.125 302.932C71.8079 302.617 69.0939 302.175 69.0939 301.953C69.0939 290.079 95.185 276.94 108.64 282.038C134.56 291.855 139.75 304.844 127.509 329.27C98.7643 386.64 36.1641 397.061 17.8768 347.523C15.1261 340.076 14.3316 330.279 14.9111 311.018C15.5693 289.033 16.3192 282.99 20.7193 264.153C24.6474 247.344 36.0855 221.82 47.4659 204.462C50.311 200.121 53.261 195.459 54.0162 194.103C55.8072 190.896 73.2082 167.244 83.7783 153.651C111.86 117.543 128.191 85.0514 124.315 72.9948C123.056 69.0779 120.762 68.8239 119.873 72.5015ZM497.488 183.035C509.434 185.184 516.489 189.994 521.033 199.088C523.823 204.67 523.697 204.798 513.221 207.215C471.856 216.758 423.111 209.79 438.238 196.498C450.775 185.482 477.433 179.427 497.488 183.035ZM211.989 168.088C210.817 170.424 209.404 176.608 207.319 188.526C205.447 199.219 205.499 252.94 207.39 262.03C212.7 287.554 219.3 298.103 232.366 301.953C252.507 307.887 268.88 286.523 262.013 263.263C260.652 258.658 260.565 258.663 255.916 263.675C251.453 268.49 243.72 273.376 240.566 273.376C230.641 273.376 222.829 248.163 217.947 200.366C217.309 194.126 216.358 186.05 215.828 182.417C215.301 178.786 214.868 173.818 214.868 171.376C214.868 166.32 213.602 164.872 211.989 168.088Z" stroke="#4BAB00" mask="url(#path-1-outside-1_661:125)"/>
</g>
</svg>
