<svg width="207" height="208" viewBox="0 0 207 208" fill="none" xmlns="http://www.w3.org/2000/svg">
<circle cx="103.135" cy="104.104" r="70.5" transform="rotate(30 103.135 104.104)" stroke="#4BAB00" stroke-width="10"/>
<path d="M96.4485 91.526C94.3636 95.1371 89.7461 96.3744 86.135 94.2895C82.5239 92.2046 81.2866 87.5871 83.3715 83.976C85.4564 80.3649 90.0739 79.1276 93.685 81.2125C97.2961 83.2974 98.5333 87.9149 96.4485 91.526Z" fill="#4BAB00"/>
<path d="M129.141 110.401C127.056 114.012 122.439 115.249 118.827 113.164C115.216 111.08 113.979 106.462 116.064 102.851C118.149 99.2399 122.766 98.0026 126.377 100.088C129.989 102.172 131.226 106.79 129.141 110.401Z" fill="#4BAB00"/>
<path d="M68.4727 96.2974C68.4727 96.2974 59.8923 120.113 86.0462 135.213C112.2 150.313 128.623 131.025 128.623 131.025" stroke="#4BAB00" stroke-width="10" stroke-linecap="round"/>
</svg>
